<?xml version="1.0" encoding="UTF-8" standalone="no"?>
<!-- Generator: Adobe Illustrator 19.0.0, SVG Export Plug-In . SVG Version: 6.00 Build 0)  -->

<svg
   version="1.1"
   id="Layer_1"
   x="0px"
   y="0px"
   viewBox="0 0 310 310"
   style="enable-background:new 0 0 310 310;"
   xml:space="preserve"
   sodipodi:docname="youtube-svgrepo-com.svg"
   inkscape:version="1.1 (1:1.1+202105261517+ce6663b3b7)"
   xmlns:inkscape="http://www.inkscape.org/namespaces/inkscape"
   xmlns:sodipodi="http://sodipodi.sourceforge.net/DTD/sodipodi-0.dtd"
   xmlns="http://www.w3.org/2000/svg"
   xmlns:svg="http://www.w3.org/2000/svg"><defs
   id="defs37" /><sodipodi:namedview
   id="namedview35"
   pagecolor="#ffffff"
   bordercolor="#999999"
   borderopacity="1"
   inkscape:pageshadow="0"
   inkscape:pageopacity="0"
   inkscape:pagecheckerboard="0"
   showgrid="false"
   inkscape:zoom="2.8096774"
   inkscape:cx="155"
   inkscape:cy="155"
   inkscape:window-width="1920"
   inkscape:window-height="1080"
   inkscape:window-x="0"
   inkscape:window-y="0"
   inkscape:window-maximized="1"
   inkscape:current-layer="Layer_1" />
<g
   id="XMLID_822_"
   style="fill:#ffee32;fill-opacity:1">
	<path
   id="XMLID_823_"
   d="M297.917,64.645c-11.19-13.302-31.85-18.728-71.306-18.728H83.386c-40.359,0-61.369,5.776-72.517,19.938   C0,79.663,0,100.008,0,128.166v53.669c0,54.551,12.896,82.248,83.386,82.248h143.226c34.216,0,53.176-4.788,65.442-16.527   C304.633,235.518,310,215.863,310,181.835v-53.669C310,98.471,309.159,78.006,297.917,64.645z M199.021,162.41l-65.038,33.991   c-1.454,0.76-3.044,1.137-4.632,1.137c-1.798,0-3.592-0.484-5.181-1.446c-2.992-1.813-4.819-5.056-4.819-8.554v-67.764   c0-3.492,1.822-6.732,4.808-8.546c2.987-1.814,6.702-1.938,9.801-0.328l65.038,33.772c3.309,1.718,5.387,5.134,5.392,8.861   C204.394,157.263,202.325,160.684,199.021,162.41z"
   style="fill:#ffee32;fill-opacity:1" />
</g>
<g
   id="g4">
</g>
<g
   id="g6">
</g>
<g
   id="g8">
</g>
<g
   id="g10">
</g>
<g
   id="g12">
</g>
<g
   id="g14">
</g>
<g
   id="g16">
</g>
<g
   id="g18">
</g>
<g
   id="g20">
</g>
<g
   id="g22">
</g>
<g
   id="g24">
</g>
<g
   id="g26">
</g>
<g
   id="g28">
</g>
<g
   id="g30">
</g>
<g
   id="g32">
</g>
</svg>
